#!OML:ASF H:\Terrain\Patient Classification 1\Terrain2\Thursday\justin.ASF
:FULLY-SPECIFIED
:DEGREES
1090
root 8.45403 17.7228 21.6066 475.914 -89.0737 -475.573
lowerback 5.44604 1.46832 0.948945
upperback 1.92267 1.98056 3.14973
thorax -1.15301 0.954509 2.58146
lowerneck -14.2102 -1.13723 -9.14968
upperneck 37.5698 -1.6254 3.34949
head 15.7861 -2.00883 2.65735
rclavicle -2.49475e-014 -3.49861e-014
rhumerus -20.5519 -1.87564 -82.4095
rradius 44.1975
rwrist -14.4525
rhand -19.9322 15.1744
rfingers 7.12502
rthumb 6.40523 -14.7088
lclavicle -2.49475e-014 -3.49861e-014
lhumerus -38.5006 6.20319 83.6581
lradius 33.4478
lwrist 2.16127
lhand -15.8502 21.823
lfingers 7.12502
lthumb 10.3447 51.5486
rfemur -3.5746 -1.45624 22.1669
rtibia 33.8456
rfoot -17.0465 3.29177
rtoes 20.8046
lfemur -9.88516 0.33829 -18.486
ltibia 33.9566
lfoot -14.9286 -7.08028
ltoes 17.7762
1091
root 8.41449 17.6949 21.6385 489.29 -89.0928 -489.121
lowerback 5.44505 1.40335 1.09332
upperback 2.05745 1.89461 2.91808
thorax -0.998053 0.912065 2.2687
lowerneck -14.3 -1.08801 -9.0908
upperneck 37.654 -1.64373 3.54062
head 15.8499 -1.98713 2.72844
rclavicle -1.2921e-015 8.74653e-015
rhumerus -20.6217 -2.69203 -82.5447
rradius 43.8137
rwrist -14.9844
rhand -20.0835 15.8663
rfingers 7.12502
rthumb 6.25923 -14.0212
lclavicle -1.2921e-015 8.74653e-015
lhumerus -38.1118 5.58909 83.5963
lradius 32.8647
lwrist 1.54396
lhand -15.5219 21.9401
lfingers 7.12502
lthumb 10.6614 51.6496
rfemur -4.19521 -1.56492 21.888
rtibia 35.6985
rfoot -17.2555 3.10244
rtoes 17.7064
lfemur -9.01519 0.329476 -18.8389
ltibia 33.046
lfoot -15.7171 -6.99193
ltoes 21.5685
1092
root 8.36377 17.6842 21.6735 515.121 -88.92 -515.281
lowerback 5.48146 1.39803 1.01753
upperback 2.25024 1.87544 2.73189
thorax -0.815827 0.901809 2.12237
lowerneck -14.1707 -1.04616 -9.041
upperneck 37.5695 -1.62449 3.56717
head 15.7724 -1.96836 2.73186
rclavicle -8.54774e-015 -1.59028e-015
rhumerus -20.6839 -3.65805 -82.5508
rradius 43.3891
rwrist -14.6125
rhand -19.8036 15.4912
rfingers 7.12502
rthumb 6.52944 -14.3881
lclavicle -8.54774e-015 -1.59028e-015
lhumerus -37.7834 5.28063 83.5548
lradius 32.1942
lwrist 0.870011
lhand -15.3397 21.6718
lfingers 7.12502
lthumb 10.8371 51.3722
rfemur -4.78487 -1.37859 21.4022
rtibia 37.751
rfoot -16.8679 2.98639
rtoes 14.245
lfemur -7.85541 0.172191 -19.3343
ltibia 32.0781
lfoot -16.6157 -6.5555
ltoes 21.5798
1093
root 8.32641 17.6853 21.6942 534.029 -89.0632 -534.2
lowerback 5.49894 1.10485 0.258705
upperback 2.21674 1.45047 2.88196
thorax -0.86998 0.686554 2.72966
lowerneck -14.165 -0.841715 -9.1703
upperneck 37.7074 -1.16683 3.21714
head 15.8025 -1.85767 2.68076
rclavicle 6.95746e-016 -4.77083e-015
rhumerus -20.8259 -3.68104 -82.3373
rradius 42.9098
rwrist -14.4153
rhand -19.7647 14.9204
rfingers 7.12502
rthumb 6.56695 -14.9578
lclavicle 6.95746e-016 -4.77083e-015
lhumerus -37.755 6.0472 83.4053
lradius 31.4015
lwrist -0.65135
lhand -14.29 20.6371
lfingers 7.12502
lthumb 11.8495 50.2818
rfemur -5.85009 -1.69843 20.8388
rtibia 40.0019
rfoot -16.2882 2.97869
rtoes 10.8681
lfemur -7.13377 0.114386 -19.8343
ltibia 31.0433
lfoot -16.8851 -6.26427
ltoes 18.2901
1094
root 8.29955 17.6855 21.7034 513.954 -89.363 -513.869
lowerback 5.42495 0.715349 -0.0748194
upperback 2.08717 0.918813 3.17445
thorax -0.947116 0.419361 3.25415
lowerneck -14.2987 -0.614001 -9.20561
upperneck 37.8859 -0.731629 2.99249
head 15.8884 -1.72609 2.66524
rclavicle -4.17448e-015 -8.74653e-015
rhumerus -20.996 -3.62725 -82.1597
rradius 42.4069
rwrist -14.6563
rhand -20.3399 15.0558
rfingers 7.12502
rthumb 6.01163 -14.8389
lclavicle -4.17448e-015 -8.74653e-015
lhumerus -37.5972 7.56026 82.6777
lradius 30.3541
lwrist -3.82392
lhand -12.1782 18.7242
lfingers 7.12502
lthumb 13.8852 48.2407
rfemur -7.36395 -2.08286 21.0119
rtibia 42.479
rfoot -15.7792 2.84321
rtoes 8.15023
lfemur -6.76538 0.208296 -19.6069
ltibia 29.8922
lfoot -16.4387 -6.95229
ltoes 19.9739
1095
root 8.2667 17.6923 21.7272 495.394 -89.4824 -495.236
lowerback 5.43053 0.497733 -0.13019
upperback 2.03787 0.628042 3.21571
thorax -0.98517 0.27437 3.34634
lowerneck -14.1625 -0.471979 -9.06954
upperneck 37.874 -0.559831 2.91975
head 15.8317 -1.6492 2.6366
rclavicle -2.28602e-015 -1.98785e-014
rhumerus -21.3644 -4.34538 -81.9919
rradius 42.0307
rwrist -14.8762
rhand -20.7881 15.6919
rfingers 7.12502
rthumb 5.57896 -14.2147
lclavicle -2.28602e-015 -1.98785e-014
lhumerus -37.2548 8.45756 82.0644
lradius 29.3214
lwrist -6.0383
lhand -11.3137 17.3956
lfingers 7.12502
lthumb 14.7183 46.8531
rfemur -8.83765 -2.30122 20.9883
rtibia 45.1755
rfoot -14.9795 2.73808
rtoes 4.93875
lfemur -6.12938 0.403353 -19.5305
ltibia 28.6714
lfoot -16.0964 -7.27131
ltoes 15.0493
1096
root 8.23432 17.6991 21.7665 424.891 -90.7361 -424.71
lowerback 5.41096 0.441684 -0.998883
upperback 2.04592 0.514576 2.8527
thorax -0.963494 0.220622 3.46825
lowerneck -14.0318 -0.425977 -8.97144
upperneck 37.8977 -0.529048 2.8668
head 15.808 -1.63456 2.60023
rclavicle 4.37326e-015 1.90833e-014
rhumerus -21.7401 -5.20359 -81.7018
rradius 41.6189
rwrist -15.1741
rhand -20.5115 15.8541
rfingers 7.12502
rthumb 5.84601 -14.0452
lclavicle 4.37326e-015 1.90833e-014
lhumerus -36.7808 8.46575 82.0698
lradius 28.5897
lwrist -6.26656
lhand -11.8032 17.6829
lfingers 7.12502
lthumb 14.2467 47.1743
rfemur -10.4026 -2.69624 19.5924
rtibia 47.9921
rfoot -13.7215 2.79964
rtoes 0.570325
lfemur -5.50197 0.810366 -20.7749
ltibia 27.5541
lfoot -16.3628 -5.95122
ltoes -8.31347
1097
root 8.20515 17.6971 21.8015 439.369 -91.9256 -439.204
lowerback 5.48481 0.463169 -2.16797
upperback 2.0828 0.486178 2.51582
thorax -0.970596 0.207188 3.78233
lowerneck -14.105 -0.483941 -9.06358
upperneck 38.0089 -0.598574 2.88359
head 15.89 -1.68142 2.61393
rclavicle -1.68967e-015 -1.59028e-014
rhumerus -21.964 -5.89917 -81.3051
rradius 41.038
rwrist -15.4245
rhand -20.4314 15.0491
rfingers 7.12502
rthumb 5.92328 -14.8481
lclavicle -1.68967e-015 -1.59028e-014
lhumerus -36.2732 8.36904 82.3346
lradius 28.0642
lwrist -5.92597
lhand -12.1809 18.6937
lfingers 7.12502
lthumb 13.8826 48.2103
rfemur -12.112 -3.14308 17.9737
rtibia 50.9586
rfoot -12.1855 2.9222
rtoes -4.02455
lfemur -4.87889 1.76227 -22.177
ltibia 26.3213
lfoot -16.4571 -6.30994
ltoes -11.5682
1098
root 8.17058 17.7212 21.8309 441.252 -92.3489 -441.197
lowerback 5.69115 0.418532 -2.6861
upperback 2.102 0.396079 2.45323
thorax -1.06067 0.16245 4.01664
lowerneck -14.0855 -0.530999 -9.16815
upperneck 38.1224 -0.659004 2.87889
head 15.9505 -1.73237 2.62082
rclavicle -1.39149e-015 -3.18055e-015
rhumerus -22.2428 -6.54902 -80.9672
rradius 40.4301
rwrist -15.6805
rhand -21.104 14.3199
rfingers 7.12502
rthumb 5.27395 -15.5945
lclavicle -1.39149e-015 -3.18055e-015
lhumerus -35.8737 8.56209 82.3943
lradius 27.3679
lwrist -6.04109
lhand -13.0484 19.1976
lfingers 7.12502
lthumb 13.0465 48.7696
rfemur -13.6993 -3.65501 17.2829
rtibia 53.9049
rfoot -10.5712 2.96713
rtoes -6.9004
lfemur -3.93555 2.87232 -22.4962
ltibia 24.9078
lfoot -15.7564 -9.17244
ltoes 6.77913
